<?xml version="1.0" standalone="no"?>
<!DOCTYPE svg PUBLIC "-//W3C//DTD SVG 20010904//EN"
 "http://www.w3.org/TR/2001/REC-SVG-20010904/DTD/svg10.dtd">
<svg version="1.0" xmlns="http://www.w3.org/2000/svg"
 width="90.000000pt" height="90.000000pt" viewBox="0 0 90.000000 90.000000"
 preserveAspectRatio="xMidYMid meet">
<metadata>
Created by potrace 1.14, written by Peter Selinger 2001-2017
</metadata>
<g transform="translate(0.000000,90.000000) scale(0.100000,-0.100000)"
fill="#000000" stroke="none">
<path d="M360 890 c11 -7 5 -10 -22 -10 -20 0 -38 -4 -40 -10 -1 -5 -15 -11
-30 -12 -15 -1 -24 -6 -22 -10 5 -7 -19 -12 -39 -9 -5 1 -6 -3 -2 -9 3 -5 -1
-10 -9 -10 -9 0 -16 -4 -16 -10 0 -5 -7 -10 -16 -10 -8 0 -12 -4 -9 -10 6 -9
-8 -14 -28 -11 -5 1 -6 -3 -3 -8 3 -5 3 -17 0 -26 -5 -13 -8 -14 -15 -3 -7 10
-9 9 -9 -4 0 -10 -5 -18 -11 -18 -5 0 -8 -4 -5 -9 3 -5 -1 -11 -9 -15 -8 -3
-15 -11 -15 -18 0 -9 3 -8 10 2 5 8 10 10 10 4 0 -13 -25 -36 -31 -29 -3 2 -6
-8 -7 -23 -1 -15 -7 -28 -12 -30 -6 -2 -10 -17 -10 -33 0 -18 -4 -28 -10 -24
-14 9 -12 -8 3 -24 10 -11 9 -12 -1 -7 -10 6 -12 -10 -11 -73 1 -44 6 -78 10
-75 8 4 15 -53 10 -79 -1 -5 3 -6 9 -2 5 3 10 -2 10 -12 0 -10 7 -27 15 -37 8
-10 12 -23 9 -28 -3 -5 -1 -7 4 -6 6 2 11 -1 12 -7 1 -5 8 -17 16 -26 8 -9 11
-19 7 -23 -5 -4 -1 -6 7 -4 8 2 14 -3 12 -10 -1 -8 2 -11 7 -8 5 4 21 -5 34
-18 14 -14 28 -22 31 -19 3 4 6 1 6 -5 0 -12 63 -45 86 -45 8 0 14 -4 14 -9 0
-4 13 -8 29 -8 17 0 33 -4 36 -10 3 -5 42 -10 85 -10 43 0 82 5 85 10 3 6 21
10 38 10 18 0 41 7 51 15 10 8 23 12 29 8 6 -3 7 -1 3 5 -4 7 -2 12 4 12 6 0
9 4 6 8 -3 5 1 9 9 9 8 0 12 -4 10 -8 -3 -4 6 -2 19 4 16 8 21 14 13 19 -8 5
-8 8 -1 8 6 0 25 14 42 30 18 17 35 31 39 33 5 1 6 8 5 16 -2 7 1 10 6 7 6 -3
16 7 24 24 7 16 16 30 20 30 5 0 8 14 8 30 0 17 5 30 10 30 6 0 10 11 10 25 0
14 5 25 11 25 8 0 7 6 -2 17 -10 12 -11 15 -1 9 10 -6 12 10 11 78 -1 47 -5
83 -10 80 -8 -4 -15 53 -10 79 1 5 -3 6 -9 2 -9 -5 -15 15 -11 38 1 5 -3 6 -9
2 -9 -5 -15 15 -11 38 1 5 -3 6 -8 3 -5 -4 -12 3 -16 14 -3 11 -17 28 -30 38
-13 11 -21 22 -18 26 6 6 -13 10 -32 6 -5 -1 -7 1 -3 5 8 9 -16 35 -32 35 -6
0 -8 5 -4 11 4 7 -2 7 -17 -1 -13 -7 -21 -9 -17 -5 11 12 -11 35 -34 35 -10 0
-16 5 -13 10 4 6 3 10 -2 9 -27 -5 -83 2 -79 10 3 5 -37 9 -91 9 -64 1 -92 -2
-83 -8z"/>
</g>
</svg>
